<?xml version="1.0" encoding="UTF-8"?>
<svg width="26px" height="26px" viewBox="0 0 26 26" version="1.1" xmlns="http://www.w3.org/2000/svg" xmlns:xlink="http://www.w3.org/1999/xlink">
    <!-- Generator: Sketch 49.1 (51147) - http://www.bohemiancoding.com/sketch -->
    <title>Icons/Account</title>
    <desc>Created with Sketch.</desc>
    <defs></defs>
    <g id="Icons/Account" stroke="#ffffff" stroke-width="1" fill="none" fill-rule="evenodd">
        <path d="M19.5285455,22.0021818 C19.3752727,22.1129091 19.2192727,22.2214545 19.0616364,22.324 C18.9890909,22.3709091 18.9170909,22.4178182 18.8445455,22.4647273 C18.6378182,22.5923636 18.4289091,22.7118182 18.214,22.8269091 C18.1670909,22.8503636 18.1201818,22.8738182 18.0732727,22.8989091 C17.5807273,23.1503636 17.0718182,23.368 16.5498182,23.5425455 C16.5329091,23.5490909 16.5132727,23.5556364 16.4941818,23.5616364 C16.2214545,23.6532727 15.9443636,23.7323636 15.6634545,23.8027273 L15.6612727,23.8027273 C15.3776364,23.8730909 15.0923636,23.9303636 14.8049091,23.9794545 C14.7961818,23.9794545 14.7874545,23.9816364 14.7814545,23.9838182 C14.5109091,24.0263636 14.236,24.058 13.9632727,24.0836364 C13.9141818,24.088 13.8650909,24.0901818 13.816,24.0945455 C13.5454545,24.1136364 13.2727273,24.1261818 13,24.1261818 C12.7229091,24.1261818 12.448,24.1136364 12.1730909,24.0923636 C12.1261818,24.0901818 12.0776364,24.0858182 12.0307273,24.0814545 C11.7536364,24.058 11.4787273,24.0241818 11.206,23.9816364 L11.17,23.9750909 C10.5923636,23.8769091 10.0256364,23.7367273 9.47145455,23.5512727 C9.45454545,23.5447273 9.43763636,23.5381818 9.42072727,23.5321818 C9.14581818,23.4405455 8.87527273,23.3358182 8.60854545,23.2207273 C8.60636364,23.2207273 8.60418182,23.2207273 8.60254545,23.2185455 C8.35109091,23.11 8.10345455,22.9905455 7.85854545,22.8629091 C7.82690909,22.846 7.79472727,22.8307273 7.76254545,22.8138182 C7.53890909,22.6943636 7.32181818,22.5667273 7.10636364,22.4325455 C7.04254545,22.3921818 6.97872727,22.3518182 6.91709091,22.3087273 C6.71854545,22.1810909 6.52272727,22.0447273 6.33290909,21.9018182 C6.31381818,21.8870909 6.29472727,21.8723636 6.27563636,21.8570909 L6.316,21.8336364 L9.76763636,19.9523636 C10.36,19.6283636 10.7287273,19.0065455 10.7287273,18.3307273 L10.7287273,16.7587273 L10.6283636,16.6370909 C10.618,16.6261818 9.676,15.4801818 9.31818182,13.9245455 L9.28,13.7521818 L9.13054545,13.6561818 C8.92,13.5198182 8.794,13.294 8.794,13.0490909 L8.794,11.5021818 C8.794,11.2998182 8.88127273,11.11 9.03672727,10.9670909 L9.18181818,10.8372727 L9.18181818,8.40836364 L9.17745455,8.35109091 C9.17745455,8.34018182 9.04763636,7.28963636 9.78672727,6.448 C10.4178182,5.728 11.5,5.36363636 13,5.36363636 C14.4956364,5.36363636 15.574,5.72581818 16.2045455,6.43981818 C16.9436364,7.27272727 16.8225455,8.34236364 16.8225455,8.35109091 L16.8181818,10.8394545 L16.9632727,10.9692727 C17.1187273,11.11 17.206,11.2998182 17.206,11.5021818 L17.206,13.0490909 C17.206,13.36 16.9927273,13.6436364 16.6905455,13.7374545 L16.4729091,13.8034545 L16.4025455,14.0205455 C16.1450909,14.8196364 15.7785455,15.5587273 15.3138182,16.2154545 C15.1987273,16.3769091 15.088,16.5198182 14.992,16.6305455 L14.8856364,16.7521818 L14.8856364,18.3672727 C14.8856364,19.0703636 15.2756364,19.7030909 15.904,20.0183636 L19.5989091,21.8658182 C19.6223636,21.8761818 19.6458182,21.8892727 19.6692727,21.9018182 C19.6223636,21.9361818 19.5754545,21.9678182 19.5285455,22.0021818 M1.87381818,13 C1.87381818,6.86363636 6.86363636,1.87381818 13,1.87381818 C19.1363636,1.87381818 24.1261818,6.86363636 24.1261818,13 C24.1261818,16.3065455 22.6752727,19.2792727 20.3783636,21.3181818 C20.2507273,21.2309091 20.1230909,21.1496364 19.9883636,21.0836364 L16.294,19.2367273 C15.964,19.0703636 15.7572727,18.7381818 15.7572727,18.3672727 L15.7572727,17.0761818 C15.8423636,16.9714545 15.934,16.852 16.0256364,16.72 C16.5050909,16.0447273 16.8885455,15.2925455 17.1678182,14.4852727 C17.7214545,14.2229091 18.0776364,13.6709091 18.0776364,13.0490909 L18.0776364,11.5021818 C18.0776364,11.1247273 17.9390909,10.7587273 17.692,10.4685455 L17.692,8.43181818 C17.7132727,8.206 17.794,6.92745455 16.8694545,5.87309091 C16.066,4.95672727 14.764,4.48981818 13,4.48981818 C11.236,4.48981818 9.934,4.95672727 9.13054545,5.87309091 C8.206,6.92745455 8.28672727,8.206 8.308,8.43181818 L8.308,10.4685455 C8.06090909,10.7565455 7.92236364,11.1247273 7.92236364,11.5021818 L7.92236364,13.0490909 C7.92236364,13.5307273 8.13781818,13.978 8.50654545,14.2807273 C8.86,15.6656364 9.58654545,16.714 9.85709091,17.0674545 L9.85709091,18.3307273 C9.85709091,18.6869091 9.66127273,19.0147273 9.35036364,19.1854545 L5.89818182,21.0667273 C5.78963636,21.1261818 5.67890909,21.1965455 5.57036364,21.2756364 C3.30345455,19.2367273 1.87381818,16.2836364 1.87381818,13 M25,13 C25,6.38418182 19.6158182,1 13,1 C6.38418182,1 1,6.38418182 1,13 C1,16.4941818 2.50218182,19.6458182 4.89509091,21.8401818 L4.88418182,21.8510909 L5.272,22.1789091 C5.29763636,22.2001818 5.32545455,22.2170909 5.35109091,22.2389091 C5.55727273,22.4090909 5.77272727,22.5710909 5.98981818,22.7287273 C6.06018182,22.78 6.13054545,22.8307273 6.20309091,22.882 C6.43763636,23.0418182 6.676,23.1950909 6.92090909,23.338 C6.97436364,23.3701818 7.02781818,23.3996364 7.08072727,23.4318182 C7.34745455,23.5829091 7.62236364,23.728 7.90109091,23.8578182 C7.92236364,23.8687273 7.942,23.8769091 7.96327273,23.8878182 C8.87527273,24.3094545 9.84890909,24.6209091 10.8650909,24.8063636 C10.8929091,24.8101818 10.9185455,24.8145455 10.9458182,24.8189091 C11.2610909,24.8745455 11.5807273,24.9170909 11.9047273,24.9465455 C11.9429091,24.9509091 11.9838182,24.9530909 12.022,24.9574545 C12.3438182,24.9830909 12.67,25 13,25 C13.3261818,25 13.6496364,24.9830909 13.9692727,24.9574545 C14.0101818,24.9530909 14.0505455,24.9509091 14.0909091,24.9487273 C14.4127273,24.9192727 14.728,24.8761818 15.0410909,24.8232727 C15.0689091,24.8189091 15.0967273,24.8123636 15.1245455,24.808 C16.1254545,24.6290909 17.0843636,24.3247273 17.9838182,23.9112727 C18.0176364,23.8965455 18.052,23.8812727 18.0836364,23.8665455 C18.3541818,23.7389091 18.6165455,23.6025455 18.8745455,23.4574545 C18.9383636,23.4209091 19.0021818,23.3849091 19.066,23.3467273 C19.3005455,23.2081818 19.5329091,23.0652727 19.7565455,22.9098182 C19.8372727,22.8563636 19.9163636,22.7969091 19.9949091,22.7390909 C20.1869091,22.6027273 20.3761818,22.4603636 20.5572727,22.3109091 C20.5981818,22.2792727 20.6429091,22.2492727 20.6832727,22.2170909 L21.0814545,21.8827273 L21.0689091,21.8723636 C23.4830909,19.6774545 25,16.5132727 25,13" id="Page-1" fill="#000000"></path>
    </g>
</svg>