<?xml version="1.0" encoding="UTF-8"?>
<svg width="26px" height="26px" viewBox="0 0 26 26" version="1.1" xmlns="http://www.w3.org/2000/svg" xmlns:xlink="http://www.w3.org/1999/xlink">
    <!-- Generator: Sketch 49.1 (51147) - http://www.bohemiancoding.com/sketch -->
    <title>Icons/Chart</title>
    <desc>Created with Sketch.</desc>
    <defs>
        <polygon id="path-1" points="6.41025641e-05 0.0205128205 24.9611737 0.0205128205 24.9611737 15.2358333 6.41025641e-05 15.2358333"></polygon>
    </defs>
    <g id="Icons/Chart" stroke="none" stroke-width="1" fill="none" fill-rule="evenodd">
        <g id="Page-1" transform="translate(0.500000, 2.326923)">
            <g id="Group-7" transform="translate(1.666667, 12.174359)" fill="#000000">
                <path d="M0.0255769231,4.60762821 L0.0255769231,8.65384615 C0.0255769231,8.9 0.225705128,9.1050641 0.477051282,9.1050641 L3.6050641,9.1050641 C3.85121795,9.1050641 4.05653846,8.90525641 4.05653846,8.65384615 L4.05653846,1.53596154 L1.78467949,3.8075641 C1.30262821,4.28461538 0.687179487,4.56153846 0.0255769231,4.60762821" id="Fill-1"></path>
                <path d="M5.61557692,1.48461538 L5.61557692,8.65384615 C5.61557692,8.9 5.81538462,9.1050641 6.06679487,9.1050641 L9.195,9.1050641 C9.44115385,9.1050641 9.64621795,8.90525641 9.64621795,8.65384615 L9.64621795,4.43333333 C8.93333333,4.41807692 8.26679487,4.13583333 7.76423077,3.63326923 L5.61557692,1.48461538 Z" id="Fill-3"></path>
                <path d="M11.2052564,3.98711538 L11.2052564,8.65384615 C11.2052564,8.9 11.4053205,9.1050641 11.6564744,9.1050641 L14.7847436,9.1050641 C15.0308333,9.1050641 15.2359615,8.90525641 15.2359615,8.65384615 L15.2359615,0.043525641 L11.6514744,3.62826923 C11.5130128,3.76673077 11.3642308,3.88467949 11.2052564,3.98711538" id="Fill-5"></path>
            </g>
            <g id="Group-13" transform="translate(0.000000, 0.058974)">
                <path d="M22.1898077,6.86673077 L18.4616026,10.5949359 L18.4616026,20.7692308 C18.4616026,21.0153846 18.6616667,21.2204487 18.9128205,21.2204487 L22.0410897,21.2204487 C22.2872436,21.2204487 22.4923077,21.020641 22.4923077,20.7692308 L22.4923077,7.14865385 C22.3898718,7.06153846 22.3127564,6.98467949 22.2564103,6.93333333 L22.1898077,6.86673077 Z" id="Fill-8" fill="#000000"></path>
                <g id="Group-12">
                    <mask id="mask-2" fill="white">
                        <use xlink:href="#path-1"></use>
                    </mask>
                    <g id="Clip-11"></g>
                    <path d="M24.7486538,0.261666667 C24.6001923,0.102628205 24.3742949,0.0205128205 24.0873718,0.0205128205 L24.0051923,0.0205128205 C22.5489103,0.0871153846 21.0975641,0.158974359 19.6409615,0.225576923 C19.4461538,0.235833333 19.1794872,0.246153846 18.9694231,0.456474359 C18.9025641,0.523076923 18.8512179,0.599935897 18.8103846,0.692307692 C18.5948077,1.15910256 18.8975641,1.46153846 19.0410256,1.6050641 L19.4051282,1.97435897 C19.6565385,2.23076923 19.9129487,2.48717949 20.169359,2.73833333 L11.3692308,11.5437179 L7.41544872,7.58961538 C7.17955128,7.35371795 6.86153846,7.22051282 6.52326923,7.22051282 C6.18467949,7.22051282 5.87198718,7.35371795 5.63608974,7.58961538 L0.369423077,12.8512821 C-0.123141026,13.3435897 -0.123141026,14.1383333 0.369423077,14.6308974 L0.60525641,14.8667949 C0.841153846,15.1026282 1.15891026,15.2358333 1.4974359,15.2358333 C1.83602564,15.2358333 2.14878205,15.1026282 2.38461538,14.8667949 L6.52326923,10.728141 L10.4770513,14.6819872 C10.7129487,14.9178205 11.0307051,15.0512821 11.3692308,15.0512821 C11.7078205,15.0512821 12.0205769,14.9178205 12.2616667,14.6819872 L22.1898077,4.75384615 L23.3128846,5.87185897 C23.4463462,6.0050641 23.6308974,6.18961538 23.9128205,6.18961538 C24.0307692,6.18961538 24.1487179,6.15910256 24.2719231,6.09224359 C24.3540385,6.04615385 24.425641,5.99480769 24.4872436,5.93320513 C24.7078205,5.71288462 24.7486538,5.43064103 24.7589103,5.21032051 C24.8,4.26653846 24.8463462,3.32307692 24.8923718,2.37429487 L24.9589744,0.953782051 C24.9745513,0.656538462 24.9076923,0.425641026 24.7486538,0.261666667" id="Fill-10" fill="#000000" mask="url(#mask-2)"></path>
                </g>
            </g>
        </g>
    </g>
</svg>