<?xml version="1.0" encoding="UTF-8"?>
<svg width="26px" height="26px" viewBox="0 0 26 26" version="1.1" xmlns="http://www.w3.org/2000/svg" xmlns:xlink="http://www.w3.org/1999/xlink">
    <!-- Generator: Sketch 49.1 (51147) - http://www.bohemiancoding.com/sketch -->
    <title>Icons/Chat</title>
    <desc>Created with Sketch.</desc>
    <defs></defs>
    <g id="Icons/Chat" stroke="none" stroke-width="1" fill="none" fill-rule="evenodd">
        <g id="Page-1" transform="translate(1.000000, 1.750000)" fill="#000000">
            <path stroke="#ffffff" d="M4,9.1995 L9.199,9.1995 C9.422,9.1995 9.5995,9.0215 9.5995,8.801 C9.5995,8.58 9.422,8.4005 9.199,8.4005 L4,8.4005 C3.7795,8.4005 3.5995,8.58 3.5995,8.801 C3.5995,9.0215 3.7795,9.1995 4,9.1995" id="Fill-1"></path>
            <path stroke="#ffffff" d="M14.4005,10.801 L4,10.801 C3.7795,10.801 3.5995,10.9785 3.5995,11.1995 C3.5995,11.42 3.7795,11.5995 4,11.5995 L14.4005,11.5995 C14.621,11.5995 14.801,11.42 14.801,11.1995 C14.801,10.9785 14.621,10.801 14.4005,10.801" id="Fill-3"></path>
            <path stroke="#ffffff" d="M14.4005,13.1995 L4,13.1995 C3.7795,13.1995 3.5995,13.379 3.5995,13.5995 C3.5995,13.8205 3.7795,14 4,14 L14.4005,14 C14.621,14 14.801,13.8205 14.801,13.5995 C14.801,13.379 14.621,13.1995 14.4005,13.1995" id="Fill-5"></path>
            <path stroke="#ffffff" d="M23.199,10.8555 C23.199,11.723 22.494,12.428 21.629,12.428 L20.801,12.428 C20.578,12.428 20.4005,12.6075 20.4005,12.828 L20.4005,16.1935 L18.4005,13.994 L18.4005,6.7715 C18.4005,5.465 17.336,4.4005 16.0275,4.4005 L6.4005,4.42 L6.4005,2.371 C6.4005,1.504 7.1055,0.799 7.9705,0.799 L21.627,0.828 L21.629,0.828 C22.496,0.828 23.201,1.5335 23.201,2.4005 L23.201,10.8555 L23.199,10.8555 Z M17.5995,15.2285 C17.5995,16.096 16.8945,16.801 16.0275,16.801 L9.199,16.828 C9.086,16.828 8.9785,16.877 8.9045,16.959 L5.5995,20.594 L5.5995,17.2285 C5.5995,17.008 5.422,16.828 5.199,16.828 L2.371,16.828 C1.506,16.828 0.801,16.123 0.801,15.256 L0.801,6.801 C0.801,5.9335 1.506,5.2285 2.373,5.2285 L6,5.221 L16.0275,5.1995 C16.8945,5.1995 17.5995,5.9045 17.5995,6.7715 L17.5995,15.2285 Z M21.629,0.0275 L7.9725,0 C6.664,0 5.5995,1.0645 5.5995,2.371 L5.5995,4.422 L2.371,4.428 C1.0645,4.428 0,5.4925 0,6.801 L0,15.256 C0,16.5645 1.0645,17.629 2.371,17.629 L4.801,17.629 L4.801,21.629 C4.801,21.793 4.9025,21.9415 5.0565,22.002 C5.1035,22.0195 5.1525,22.0295 5.199,22.0295 C5.3105,22.0295 5.418,21.9825 5.496,21.8985 L9.377,17.627 L16.0275,17.5995 C17.336,17.5995 18.4005,16.537 18.4005,15.2285 L18.4005,15.1835 L20.504,17.498 C20.582,17.582 20.6895,17.629 20.801,17.629 C20.8475,17.629 20.8965,17.619 20.9435,17.6015 C21.0975,17.543 21.199,17.3945 21.199,17.2285 L21.199,13.2285 L21.629,13.2285 C22.9355,13.2285 24,12.164 24,10.8575 L24,2.4005 C24,1.092 22.9355,0.0295 21.629,0.0275 Z" id="Fill-7"></path>
        </g>
    </g>
</svg>