<?xml version="1.0" encoding="UTF-8"?>
<svg width="26px" height="26px" viewBox="0 0 26 26" version="1.1" xmlns="http://www.w3.org/2000/svg" xmlns:xlink="http://www.w3.org/1999/xlink">
    <!-- Generator: Sketch 49.1 (51147) - http://www.bohemiancoding.com/sketch -->
    <title>Icons/Close</title>
    <desc>Created with Sketch.</desc>
    <defs></defs>
    <g id="Icons/Close" stroke="none" stroke-width="1" fill="none" fill-rule="evenodd">
        <g id="Page-1" transform="translate(1.000000, 1.000000)" fill="#ffffff">
            <path d="M11.8862857,22.8571429 C5.83714286,22.8571429 0.915428571,17.9354286 0.915428571,11.8862857 C0.915428571,5.83714286 5.83714286,0.915428571 11.8862857,0.915428571 C17.9354286,0.915428571 22.8571429,5.83714286 22.8571429,11.8862857 C22.8571429,17.9354286 17.9354286,22.8571429 11.8862857,22.8571429 M11.8862857,0 C5.33257143,0 0,5.33257143 0,11.8862857 C0,18.44 5.33257143,23.7725714 11.8862857,23.7725714 C18.44,23.7725714 23.7725714,18.44 23.7725714,11.8862857 C23.7725714,5.33257143 18.44,0 11.8862857,0" id="Fill-1"></path>
            <path d="M16.3234286,7.44857143 C16.1451429,7.27028571 15.8548571,7.27028571 15.6765714,7.44857143 L11.8862857,11.2388571 L8.09371429,7.44857143 C7.91542857,7.27028571 7.62742857,7.27028571 7.44857143,7.44857143 C7.27028571,7.62742857 7.27028571,7.91542857 7.44857143,8.09371429 L11.2388571,11.8862857 L7.44857143,15.6765714 C7.27028571,15.8548571 7.27028571,16.1451429 7.44857143,16.3234286 C7.53771429,16.4131429 7.65428571,16.4577143 7.77257143,16.4577143 C7.88857143,16.4577143 8.00457143,16.4131429 8.09371429,16.3234286 L11.8862857,12.5314286 L15.6765714,16.3234286 C15.7657143,16.4131429 15.884,16.4577143 16,16.4577143 C16.116,16.4577143 16.2342857,16.4131429 16.3234286,16.3234286 C16.5022857,16.1451429 16.5022857,15.8548571 16.3234286,15.6765714 L12.5314286,11.8862857 L16.3234286,8.09371429 C16.5022857,7.91542857 16.5022857,7.62742857 16.3234286,7.44857143" id="Fill-3"></path>
        </g>
    </g>
</svg>