<?xml version="1.0" encoding="UTF-8"?>
<svg width="26px" height="26px" viewBox="0 0 26 26" version="1.1" xmlns="http://www.w3.org/2000/svg" xmlns:xlink="http://www.w3.org/1999/xlink">
    <!-- Generator: Sketch 49.1 (51147) - http://www.bohemiancoding.com/sketch -->
    <title>Icons/Coin</title>
    <desc>Created with Sketch.</desc>
    <defs></defs>
    <g id="Icons/Coin" stroke="none" stroke-width="1" fill="none" fill-rule="evenodd">
        <g id="Page-1" transform="translate(0.500000, 0.500000)" fill="#000000">
            <path stroke="#ffffff" d="M20.8209473,20.8209473 C18.5983887,23.0435547 15.6432617,24.2675781 12.5,24.2675781 C9.35673828,24.2675781 6.40161133,23.0435547 4.17905273,20.8209473 C1.95649414,18.5983398 0.732421875,15.6432617 0.732421875,12.5 C0.732421875,9.35673828 1.95644531,6.40161133 4.17905273,4.17905273 C6.40166016,1.95649414 9.35673828,0.732421875 12.5,0.732421875 C15.6432617,0.732421875 18.5983887,1.95644531 20.8209473,4.17905273 C23.0435059,6.40166016 24.2675781,9.35673828 24.2675781,12.5 C24.2675781,15.6432617 23.0435547,18.5983887 20.8209473,20.8209473 M21.3388672,3.66113281 C18.9779297,1.30024414 15.8388672,0 12.5,0 C9.16113281,0 6.02207031,1.30024414 3.66113281,3.66113281 C1.30019531,6.02202148 0,9.16113281 0,12.5 C0,15.8388672 1.30024414,18.9779297 3.66113281,21.3388672 C6.02202148,23.6998047 9.16113281,25 12.5,25 C15.8388672,25 18.9779297,23.6997559 21.3388672,21.3388672 C23.6998047,18.9779785 25,15.8388672 25,12.5 C25,9.16113281 23.6997559,6.02207031 21.3388672,3.66113281" id="Fill-1"></path>
            <path stroke="#ffffff" d="M12.5,2.29804687 C12.7022949,2.29804687 12.8662109,2.13413086 12.8662109,1.93183594 C12.8662109,1.72954102 12.7022949,1.565625 12.5,1.565625 C9.5793457,1.565625 6.83344727,2.70297852 4.76821289,4.76821289 C2.70297852,6.83344727 1.565625,9.5793457 1.565625,12.5 C1.565625,12.7022949 1.72954102,12.8662109 1.93183594,12.8662109 C2.13413086,12.8662109 2.29804687,12.7022949 2.29804687,12.5 C2.29804687,6.8746582 6.8746582,2.29804687 12.5,2.29804687" id="Fill-3"></path>
            <path stroke="#ffffff" d="M23.0681641,12.1337891 C22.8658691,12.1337891 22.7019531,12.2977051 22.7019531,12.5 C22.7019531,18.1253418 18.1253418,22.7019531 12.5,22.7019531 C12.2977051,22.7019531 12.1337891,22.8658691 12.1337891,23.0681641 C12.1337891,23.270459 12.2977051,23.434375 12.5,23.434375 C15.4206543,23.434375 18.1665527,22.2970215 20.2317871,20.2317871 C22.2970215,18.1665527 23.434375,15.4206543 23.434375,12.5 C23.434375,12.2977051 23.2704102,12.1337891 23.0681641,12.1337891" id="Fill-5"></path>
            <path stroke="#ffffff" d="M3.87197266,12.1472168 C3.95947266,9.97504883 4.85488281,7.93154297 6.39326172,6.39321289 C7.9315918,4.85483398 9.97504883,3.95942383 12.1472656,3.871875 C14.3062988,3.78510742 16.4033203,4.50029297 18.0509766,5.88642578 C18.2057129,6.01669922 18.4367676,5.99672852 18.5669434,5.84194336 C18.6971191,5.6871582 18.6772461,5.45620117 18.5224609,5.32597656 C16.7347168,3.82197266 14.459082,3.04506836 12.1177734,3.14008789 C9.76113281,3.23500977 7.54418945,4.20639648 5.87529297,5.87529297 C4.20644531,7.54418945 3.23510742,9.76113281 3.14008789,12.1177734 C3.04570312,14.4602051 3.82202148,16.7347656 5.32597656,18.5224609 C5.39838867,18.6085937 5.50200195,18.6529297 5.60639648,18.6529297 C5.68959961,18.6529297 5.77329102,18.624707 5.84194336,18.5669434 C5.99672852,18.4367187 6.01660156,18.2057617 5.88642578,18.0509766 C4.50039063,16.4033203 3.78496094,14.3066895 3.87197266,12.1472168" id="Fill-7"></path>
            <path stroke="#ffffff" d="M12.8822266,21.8598633 C15.2388672,21.7648926 17.4558105,20.7935059 19.124707,19.1246582 C20.7936035,17.4557617 21.7649414,15.2388184 21.8599121,12.8821777 C21.9542969,10.5397461 21.1779785,8.26518555 19.6740234,6.47749023 C19.5438477,6.32270508 19.3128906,6.30283203 19.1580566,6.43300781 C19.0032715,6.56323242 18.9833984,6.79418945 19.1135742,6.94897461 C20.4996582,8.59658203 21.2150879,10.6932617 21.128125,12.8526855 C21.0405762,15.0248535 20.145166,17.0683594 18.6067871,18.6066895 C17.068457,20.1450684 15.025,21.0404785 12.8527832,21.1279785 C10.6928223,21.2156738 8.59667969,20.4996094 6.94907227,19.1134766 C6.79433594,18.9832031 6.56333008,19.0031738 6.43310547,19.157959 C6.30292969,19.3127441 6.32280273,19.5437012 6.47758789,19.6739258 C8.16796875,21.0959961 10.2936035,21.8674805 12.5003906,21.8674805 C12.6273437,21.8675781 12.7547363,21.8650391 12.8822266,21.8598633" id="Fill-9"></path>
            <path stroke="#ffffff" d="M10.5177246,12.4747559 L13.6742676,12.4747559 C14.7672852,12.4747559 15.656543,13.3640137 15.656543,14.4570801 C15.656543,15.5500977 14.7672852,16.4393555 13.6742676,16.4393555 L10.5177246,16.4393555 L10.5177246,12.4747559 Z M13.2828125,8.56064453 C14.1600098,8.56064453 14.8736816,9.27431641 14.8736816,10.1515137 C14.8736816,11.0287109 14.1600098,11.742334 13.2828125,11.742334 L10.5177246,11.742334 L10.5177246,8.56064453 L13.2828125,8.56064453 Z M12.8914551,18.3459961 C13.09375,18.3459961 13.257666,18.1820801 13.257666,17.9797852 L13.257666,17.1717773 L13.6742676,17.1717773 C15.1711426,17.1717773 16.3889648,15.9540039 16.3889648,14.4570801 C16.3889648,13.3381348 15.7083984,12.3750977 14.7395996,11.9601074 C15.2677246,11.5338867 15.6061523,10.8814941 15.6061523,10.1515137 C15.6061523,8.87045898 14.563916,7.82822266 13.2828613,7.82822266 L13.257666,7.82822266 L13.257666,7.02021484 C13.257666,6.81791992 13.09375,6.65400391 12.8914551,6.65400391 C12.6891602,6.65400391 12.5252441,6.81791992 12.5252441,7.02021484 L12.5252441,7.82822266 L11.6919922,7.82822266 L11.6919922,7.02021484 C11.6919922,6.81791992 11.5280762,6.65400391 11.3257812,6.65400391 C11.1234863,6.65400391 10.9595703,6.81791992 10.9595703,7.02021484 L10.9595703,7.82822266 L9.36875,7.82822266 C9.16645508,7.82822266 9.00253906,7.99213867 9.00253906,8.19443359 C9.00253906,8.39672852 9.16645508,8.56064453 9.36875,8.56064453 L9.78535156,8.56064453 L9.78535156,16.4393066 L9.36875,16.4393066 C9.16645508,16.4393066 9.00253906,16.6032227 9.00253906,16.8055176 C9.00253906,17.0078125 9.16645508,17.1717285 9.36875,17.1717285 L10.9595703,17.1717285 L10.9595703,17.9797363 C10.9595703,18.1820313 11.1234863,18.3459473 11.3257812,18.3459473 C11.5280762,18.3459473 11.6919922,18.1820313 11.6919922,17.9797363 L11.6919922,17.1717285 L12.5252441,17.1717285 L12.5252441,17.9797363 C12.5252441,18.1820313 12.6891602,18.3459961 12.8914551,18.3459961 Z" id="Fill-11"></path>
        </g>
    </g>
</svg>