<?xml version="1.0" encoding="UTF-8"?>
<svg width="26px" height="26px" viewBox="0 0 26 26" version="1.1" xmlns="http://www.w3.org/2000/svg" xmlns:xlink="http://www.w3.org/1999/xlink">
    <!-- Generator: Sketch 49.1 (51147) - http://www.bohemiancoding.com/sketch -->
    <title>Icons/Help</title>
    <desc>Created with Sketch.</desc>
    <defs>
        <polygon id="path-1" points="5e-05 0.1134125 24.76155 0.1134125 24.76155 24.875 5e-05 24.875"></polygon>
    </defs>
    <g id="Icons/Help" stroke="#ffffff" stroke-width="1" fill="none" fill-rule="evenodd">
        <g id="Page-1" transform="translate(0.562500, 0.500000)">
            <g id="Group-3" transform="translate(0.000000, 0.011625)">
                <mask id="mask-2" fill="white">
                    <use xlink:href="#path-1"></use>
                </mask>
                <g id="Clip-2"></g>
                <path d="M12.3808,0.9816625 C6.0328,0.9816625 0.8683,6.1462875 0.8683,12.4941625 C0.8683,18.8421625 6.032675,24.0067875 12.3808,24.0067875 C18.728925,24.0067875 23.8933,18.8421625 23.8933,12.4941625 C23.8933,6.1462875 18.7288,0.9816625 12.3808,0.9816625 M12.3808,24.8750375 C5.553925,24.8750375 5e-05,19.3210375 5e-05,12.4941625 C5e-05,5.6672875 5.553925,0.1134125 12.3808,0.1134125 C19.207675,0.1134125 24.76155,5.6672875 24.76155,12.4941625 C24.76155,19.3210375 19.207675,24.8750375 12.3808,24.8750375" id="Fill-1" fill="#000000" mask="url(#mask-2)"></path>
            </g>
            <path d="M11.521275,17.367475 C11.36165,17.20135 11.284025,17.0016 11.288525,16.7686 C11.292775,16.54535 11.3779,16.3541 11.54415,16.1946 C11.710025,16.0346 11.905025,15.956725 12.1284,15.961225 C12.36115,15.965475 12.55765,16.051225 12.71765,16.216975 C12.877275,16.3831 12.955025,16.577725 12.951025,16.8011 C12.946525,17.0341 12.861025,17.23035 12.694775,17.38985 C12.52865,17.55035 12.32915,17.62735 12.0964,17.623225 C11.873025,17.618725 11.681025,17.5336 11.521275,17.367475 M11.7389,14.799975 C11.624525,14.690725 11.5689,14.561725 11.57165,14.4126 C11.5799,13.99385 11.6614,13.627475 11.816525,13.313975 C11.97165,13.00035 12.151025,12.740225 12.35565,12.53435 C12.559775,12.3286 12.8324,12.094475 13.1729,11.8306 C13.53215,11.5586 13.797525,11.32135 13.969025,11.11985 C14.140525,10.918225 14.22915,10.686975 14.234025,10.425975 C14.2539,9.411475 13.59765,8.890725 12.265775,8.86485 C11.939775,8.858225 11.620275,8.891975 11.30665,8.964975 C10.993025,9.03835 10.713775,9.1471 10.46865,9.290725 C10.35565,9.3636 10.238275,9.3986 10.117275,9.3961 C9.9684,9.3931 9.83915,9.33485 9.72965,9.220725 C9.620025,9.106975 9.56665,8.97535 9.56965,8.825975 C9.574025,8.61185 9.6934,8.43685 9.92915,8.30185 C10.315775,8.067225 10.70565,7.902725 11.0984,7.80735 C11.491775,7.713225 11.926025,7.669725 12.40065,7.678975 C13.35065,7.697225 14.107525,7.94985 14.670775,8.4361 C15.234525,8.922225 15.508275,9.5701 15.49265,10.380225 C15.48565,10.743475 15.4144,11.06135 15.278775,11.3336 C15.14265,11.605975 14.980275,11.835975 14.79015,12.0226 C14.5999,12.209725 14.349275,12.421725 14.03715,12.657725 C13.630525,12.96685 13.3244,13.24785 13.119525,13.500225 C12.91415,13.75235 12.80815,14.0646 12.801025,14.436975 C12.798025,14.585975 12.734775,14.712725 12.6119,14.81735 C12.488525,14.92185 12.343025,14.972975 12.175525,14.96985 C11.9989,14.966225 11.853275,14.9096 11.7389,14.799975" id="Fill-4" fill="#000000"></path>
            <path d="M2.5674625,12.9324875 C2.3319625,12.9324875 2.1408375,12.7413625 2.1408375,12.5058625 C2.1408375,6.8593625 6.7344625,2.2658625 12.3808375,2.2658625 C12.6163375,2.2658625 12.8074625,2.4569875 12.8074625,2.6924875 C12.8074625,2.9279875 12.6163375,3.1191125 12.3808375,3.1191125 C7.2049625,3.1191125 2.9940875,7.3299875 2.9940875,12.5058625 C2.9940875,12.7413625 2.8029625,12.9324875 2.5674625,12.9324875" id="Fill-6" fill="#000000"></path>
            <path d="M19.2074625,24.8791625 L13.2340875,24.8791625 C12.9985875,24.8791625 12.8074625,24.6880375 12.8074625,24.4525375 C12.8074625,24.2169125 12.9985875,24.0257875 13.2340875,24.0257875 L19.2074625,24.0257875 C19.4429625,24.0257875 19.6340875,24.2169125 19.6340875,24.4525375 C19.6340875,24.6880375 19.4429625,24.8791625 19.2074625,24.8791625" id="Fill-8" fill="#000000"></path>
        </g>
    </g>
</svg>