<?xml version="1.0" encoding="UTF-8"?>
<svg width="26px" height="26px" viewBox="0 0 26 26" version="1.1" xmlns="http://www.w3.org/2000/svg" xmlns:xlink="http://www.w3.org/1999/xlink">
    <!-- Generator: Sketch 49.1 (51147) - http://www.bohemiancoding.com/sketch -->
    <title>Icons/Language</title>
    <desc>Created with Sketch.</desc>
    <defs>
        <polygon id="path-1" points="5e-05 0.1134125 24.76155 0.1134125 24.76155 24.875 5e-05 24.875"></polygon>
    </defs>
    <g id="Icons/Language" stroke="#ffffff" stroke-width="1" fill="none" fill-rule="evenodd">
        <g id="Page-1" transform="translate(1.062500, 0.500000)">
            <g id="Group-3" transform="translate(0.000000, 0.011625)">
                <mask id="mask-2" fill="white">
                    <use xlink:href="#path-1"></use>
                </mask>
                <g id="Clip-2"></g>
                <path d="M12.3808,0.9816625 C6.0328,0.9816625 0.8683,6.1462875 0.8683,12.4941625 C0.8683,18.8421625 6.032675,24.0067875 12.3808,24.0067875 C18.728925,24.0067875 23.8933,18.8421625 23.8933,12.4941625 C23.8933,6.1462875 18.7288,0.9816625 12.3808,0.9816625 M12.3808,24.8750375 C5.553925,24.8750375 5e-05,19.3210375 5e-05,12.4941625 C5e-05,5.6672875 5.553925,0.1134125 12.3808,0.1134125 C19.207675,0.1134125 24.76155,5.6672875 24.76155,12.4941625 C24.76155,19.3210375 19.207675,24.8750375 12.3808,24.8750375" id="Fill-1" fill="#000000" mask="url(#mask-2)"></path>
            </g>
            <path d="M22.3808,12.9324875 C22.6163,12.9324875 22.807425,12.7413625 22.807425,12.5058625 C22.807425,6.8593625 18.2138,2.2658625 12.567425,2.2658625 C12.331925,2.2658625 12.1408,2.4569875 12.1408,2.6924875 C12.1408,2.9279875 12.331925,3.1191125 12.567425,3.1191125 C17.7433,3.1191125 21.954175,7.3299875 21.954175,12.5058625 C21.954175,12.7413625 22.1453,12.9324875 22.3808,12.9324875" id="Fill-4" fill="#000000"></path>
            <polygon id="Fill-6" fill="#000000" points="5.8263 7.44705 11.571925 7.44705 11.571925 8.208175 6.673425 8.208175 6.673425 11.277425 11.0563 11.277425 11.0563 12.038675 6.673425 12.038675 6.673425 15.267425 11.73155 15.267425 11.73155 16.028675 5.8263 16.028675"></polygon>
            <path d="M18.833675,10.2400125 C19.271425,10.6862625 19.490425,11.2980125 19.490425,12.0753875 L19.490425,16.0286375 L18.655675,16.0286375 L18.655675,12.2718875 C18.655675,11.6662625 18.487675,11.1915125 18.1523,10.8477625 C17.81655,10.5040125 17.35005,10.3321375 16.752925,10.3321375 C16.0898,10.3403875 15.5598,10.5450125 15.1628,10.9458875 C14.7658,11.3470125 14.5388,11.8872625 14.481675,12.5665125 L14.481675,16.0286375 L13.658925,16.0286375 L13.658925,9.5955125 L14.481675,9.5955125 L14.481675,11.0932625 C14.70255,10.5941375 15.0278,10.2176375 15.457425,9.9638875 C15.887175,9.7102625 16.409175,9.5791375 17.022925,9.5708875 C17.792175,9.5708875 18.395675,9.7940125 18.833675,10.2400125" id="Fill-8" fill="#000000"></path>
        </g>
    </g>
</svg>