<?xml version="1.0" encoding="UTF-8"?>
<svg width="26px" height="26px" viewBox="0 0 26 26" version="1.1" xmlns="http://www.w3.org/2000/svg" xmlns:xlink="http://www.w3.org/1999/xlink">
    <!-- Generator: Sketch 49.1 (51147) - http://www.bohemiancoding.com/sketch -->
    <title>Icons/Search</title>
    <desc>Created with Sketch.</desc>
    <defs></defs>
    <g id="Icons/Search" stroke="none" stroke-width="1" fill="none" fill-rule="evenodd">
        <path stroke="#707382" d="M10.9513889,19.596653 C6.17964481,19.596653 2.29986339,15.7145947 2.29986339,10.9451275 C2.29986339,6.17338342 6.17964481,2.293602 10.9513889,2.293602 C15.7208561,2.293602 19.6029144,6.17338342 19.6029144,10.9451275 C19.6029144,15.7145947 15.7208561,19.596653 10.9513889,19.596653 M24.4856557,24.7309882 L17.7193761,17.6931922 C19.4452413,15.9610656 20.5147996,13.5754781 20.5147996,10.9451275 C20.5147996,5.67076503 16.2229053,1.38171676 10.9513889,1.38171676 C5.67702641,1.38171676 1.38797814,5.67076503 1.38797814,10.9451275 C1.38797814,16.2172131 5.67702641,20.5085383 10.9513889,20.5085383 C13.2658242,20.5085383 15.3895719,19.6791894 17.0459927,18.307377 L23.8276412,25.3622495 C23.916439,25.4556011 24.0365437,25.5 24.1566485,25.5 C24.2699226,25.5 24.3831967,25.457878 24.4725638,25.3736339 C24.6524362,25.2000228 24.6592668,24.9108607 24.4856557,24.7309882" id="Page-1" fill="#000000"></path>
    </g>
</svg>