<?xml version="1.0" encoding="UTF-8"?>
<svg width="26px" height="26px" viewBox="0 0 26 26" version="1.1" xmlns="http://www.w3.org/2000/svg" xmlns:xlink="http://www.w3.org/1999/xlink">
    <!-- Generator: Sketch 49.1 (51147) - http://www.bohemiancoding.com/sketch -->
    <title>Icons/Wallet</title>
    <desc>Created with Sketch.</desc>
    <defs></defs>
    <g id="Icons/Wallet" stroke="none" stroke-width="1" fill="none" fill-rule="evenodd">
        <g id="Page-1" transform="translate(0.500000, 1.353659)" fill="#000000">
            <path d="M24.1951829,17.0093293 L17.9510976,17.0093293 L17.9510976,12.3265854 L23.7993293,12.3265854 C23.8012195,12.3265854 23.8028659,12.3268293 23.8047561,12.3268293 C23.8067073,12.3268293 23.8085976,12.3265854 23.8104878,12.3265854 L24.1951829,12.3265854 L24.1951829,17.0093293 Z M23.4146341,21.3021951 C23.4146341,21.9476829 22.8894512,22.4728659 22.2439634,22.4728659 L1.95121951,22.4728659 C1.30573171,22.4728659 0.78054878,21.9476829 0.78054878,21.3021951 L0.78054878,6.47176829 C1.10682927,6.71731707 1.5122561,6.86310976 1.95121951,6.86310976 L22.2439634,6.86310976 C22.8894512,6.86310976 23.4146341,7.38829268 23.4146341,8.03378049 L23.4146341,11.5460976 L17.707439,11.5460976 C17.4114024,11.5460976 17.1708537,11.7868902 17.1708537,12.0826829 L17.1708537,17.2532317 C17.1708537,17.5490854 17.4114024,17.789878 17.707439,17.789878 L23.4146341,17.789878 L23.4146341,21.3021951 Z M1.95121951,3.74121951 L5.12859756,3.74121951 L1.87335366,4.52914634 C1.87140244,4.52957317 1.8695122,4.53030488 1.86737805,4.53079268 L1.85926829,4.53268293 C1.85835366,4.53292683 1.85737805,4.53317073 1.85615854,4.53365854 C1.845,4.53628049 1.83402439,4.53957317 1.82329268,4.54341463 C1.82140244,4.54390244 1.8195122,4.54457317 1.81762195,4.54530488 C1.80762195,4.54914634 1.79780488,4.55292683 1.78804878,4.55743902 C1.78542683,4.55865854 1.78280488,4.56006098 1.77993902,4.56128049 C1.77164634,4.56554878 1.76329268,4.56987805 1.75518293,4.57463415 C1.75182927,4.57652439 1.74853659,4.57865854 1.74518293,4.58054878 C1.73804878,4.58512195 1.73091463,4.58987805 1.72396341,4.59487805 C1.72042683,4.5975 1.71682927,4.60012195 1.71329268,4.6027439 C1.70682927,4.6077439 1.70067073,4.6127439 1.69469512,4.6179878 C1.69109756,4.62103659 1.68780488,4.62414634 1.68445122,4.6272561 C1.67871951,4.6327439 1.67304878,4.63847561 1.66756098,4.64414634 C1.66445122,4.6472561 1.66158537,4.65060976 1.65847561,4.65390244 C1.65323171,4.66012195 1.6479878,4.66652439 1.6427439,4.6729878 C1.64036585,4.67634146 1.6379878,4.67963415 1.63560976,4.6827439 C1.63036585,4.68963415 1.62560976,4.69682927 1.62109756,4.70396341 C1.61920732,4.7072561 1.61707317,4.71060976 1.61512195,4.71396341 C1.61060976,4.72134146 1.60658537,4.72896341 1.6027439,4.73658537 C1.60085366,4.74012195 1.59920732,4.74371951 1.5975,4.74731707 C1.59396341,4.75493902 1.59085366,4.76256098 1.5877439,4.77042683 C1.58609756,4.77469512 1.58463415,4.77871951 1.5829878,4.78304878 C1.58060976,4.79042683 1.57823171,4.79780488 1.57609756,4.80518293 C1.57439024,4.81042683 1.57323171,4.81591463 1.57176829,4.82140244 C1.57036585,4.82780488 1.56890244,4.83420732 1.5677439,4.84091463 C1.56634146,4.84780488 1.56536585,4.85445122 1.56463415,4.86140244 C1.56371951,4.86689024 1.56323171,4.87231707 1.5627439,4.87804878 C1.5620122,4.88591463 1.56152439,4.89378049 1.56128049,4.90189024 C1.56128049,4.9052439 1.56085366,4.90829268 1.56085366,4.91164634 C1.56085366,4.91329268 1.56109756,4.9152439 1.56128049,4.91713415 C1.56128049,4.9247561 1.56176829,4.93262195 1.5625,4.9404878 C1.5627439,4.94615854 1.56323171,4.95189024 1.56390244,4.95737805 C1.56463415,4.96402439 1.56560976,4.9704878 1.56676829,4.97689024 C1.5679878,4.98384146 1.56914634,4.99073171 1.57060976,4.99737805 C1.57109756,4.9995122 1.57134146,5.00146341 1.57176829,5.00359756 C1.5727439,5.00737805 1.57414634,5.01097561 1.57512195,5.0145122 C1.5770122,5.02146341 1.57896341,5.02810976 1.58109756,5.035 C1.58323171,5.04121951 1.58536585,5.04719512 1.5877439,5.05310976 C1.58987805,5.05859756 1.5920122,5.06432927 1.59463415,5.06981707 C1.5977439,5.07670732 1.60109756,5.08335366 1.60439024,5.09006098 C1.60658537,5.09432927 1.60871951,5.09835366 1.61109756,5.10243902 C1.61536585,5.11006098 1.61963415,5.11743902 1.62445122,5.12457317 C1.62634146,5.12768293 1.62823171,5.13054878 1.63036585,5.13341463 C1.63560976,5.14128049 1.64134146,5.14890244 1.64731707,5.15603659 C1.64896341,5.15817073 1.65085366,5.16054878 1.6527439,5.16268293 C1.65896341,5.17006098 1.66560976,5.17743902 1.67256098,5.18439024 C1.67420732,5.18628049 1.67609756,5.18817073 1.67804878,5.19006098 C1.68518293,5.1970122 1.69231707,5.20365854 1.69993902,5.20987805 C1.70182927,5.21152439 1.70396341,5.21317073 1.70609756,5.21512195 C1.71371951,5.22103659 1.72134146,5.2270122 1.72945122,5.2325 C1.73182927,5.23414634 1.73420732,5.23579268 1.73658537,5.2372561 C1.74469512,5.2427439 1.75280488,5.2475 1.76140244,5.2522561 C1.76378049,5.25365854 1.76640244,5.25512195 1.76878049,5.25652439 C1.77756098,5.26103659 1.78640244,5.26536585 1.79542683,5.26914634 C1.79780488,5.27036585 1.80018293,5.27128049 1.80256098,5.2722561 C1.81237805,5.27628049 1.82213415,5.27987805 1.83189024,5.2829878 C1.83378049,5.28371951 1.83567073,5.28414634 1.83762195,5.28487805 C1.84853659,5.28823171 1.8595122,5.29109756 1.87073171,5.29347561 C1.87189024,5.29347561 1.87286585,5.29396341 1.87378049,5.29396341 C1.88621951,5.29652439 1.89835366,5.29847561 1.91097561,5.29963415 C1.91121951,5.29963415 1.91146341,5.29963415 1.91170732,5.29987805 C1.9245122,5.30109756 1.93762195,5.30176829 1.95097561,5.30176829 L1.95219512,5.30176829 C1.95719512,5.30176829 1.96195122,5.3020122 1.96670732,5.30176829 L20.2927439,5.30176829 C20.5082927,5.30176829 20.6828659,5.12695122 20.6828659,4.91164634 C20.6828659,4.69609756 20.5082927,4.52128049 20.2927439,4.52128049 L5.22268293,4.52128049 L20.6295122,0.79152439 C20.8379268,0.741036585 21.0484756,0.869634146 21.0989634,1.07804878 L21.932622,4.52152439 L21.8537805,4.52152439 C21.6382317,4.52152439 21.4636585,4.69609756 21.4636585,4.91164634 C21.4636585,5.12719512 21.6382317,5.30176829 21.8537805,5.30176829 L22.2439634,5.30176829 C22.2832317,5.30176829 22.3220732,5.30396341 22.3601829,5.3077439 C22.3754268,5.31060976 22.3906707,5.3122561 22.4064024,5.31347561 C22.9751829,5.39280488 23.4146341,5.8822561 23.4146341,6.4727439 L23.4146341,6.47390244 C23.0882927,6.22835366 22.6829268,6.08256098 22.2439634,6.08256098 L1.95121951,6.08256098 C1.30573171,6.08256098 0.78054878,5.55737805 0.78054878,4.91189024 C0.78054878,4.26640244 1.30573171,3.74121951 1.95121951,3.74121951 Z M23.4146341,4.91189024 L23.4146341,4.91286585 C23.2188415,4.76542683 22.9946951,4.65439024 22.7520122,4.58890244 L22.5571951,3.78408537 C23.0509146,3.92128049 23.4146341,4.3747561 23.4146341,4.91189024 Z M24.4879268,11.5460976 L24.1951829,11.5460976 L24.1951829,4.91189024 C24.1951829,3.87457317 23.3812805,3.02402439 22.3585366,2.96420732 L21.857622,0.894390244 C21.7056707,0.267743902 21.072561,-0.118841463 20.4458537,0.0331097561 L8.29603659,2.97426829 C8.26384146,2.96567073 8.23006098,2.96067073 8.195,2.96067073 L1.95121951,2.96067073 C0.875304878,2.96067073 0,3.83597561 0,4.91189024 L0,21.3021951 C0,22.3780488 0.875304878,23.2534146 1.95121951,23.2534146 L22.2439634,23.2534146 C23.3198171,23.2534146 24.1951829,22.3780488 24.1951829,21.3021951 L24.1951829,17.789878 L24.4879268,17.789878 C24.7568293,17.789878 24.9757317,17.5709756 24.9757317,17.3020732 L24.9757317,12.0339024 C24.9757317,11.765 24.7568293,11.5460976 24.4879268,11.5460976 Z" id="Fill-1"></path>
            <path d="M21.0732927,14.2778049 C20.8576829,14.2778049 20.6828659,14.452439 20.6828659,14.6679878 C20.6828659,14.8830488 20.5078049,15.0581098 20.2927439,15.0581098 C20.077439,15.0581098 19.9023171,14.8830488 19.9023171,14.6679878 C19.9023171,14.4529268 20.077439,14.2778049 20.2927439,14.2778049 C20.5082927,14.2778049 20.6828659,14.1029878 20.6828659,13.887439 C20.6828659,13.6718902 20.5082927,13.4973171 20.2927439,13.4973171 C19.6470122,13.4973171 19.1220732,14.0225 19.1220732,14.6679878 C19.1220732,15.3134756 19.6470122,15.8386585 20.2927439,15.8386585 C20.9382317,15.8386585 21.4634146,15.3134756 21.4634146,14.6679878 C21.4634146,14.452439 21.2885976,14.2778049 21.0732927,14.2778049" id="Fill-3"></path>
        </g>
    </g>
</svg>