<?xml version="1.0" encoding="UTF-8"?>
<svg width="234px" height="50px" viewBox="0 0 234 50" version="1.1" xmlns="http://www.w3.org/2000/svg" xmlns:xlink="http://www.w3.org/1999/xlink">
    <!-- Generator: Sketch 49.1 (51147) - http://www.bohemiancoding.com/sketch -->
    <title>Icons/Logo</title>
    <desc>Created with Sketch.</desc>
    <defs></defs>
    <g id="Page-1" stroke="none" stroke-width="1" fill="none" fill-rule="evenodd">
        <g id="Index" transform="translate(-10.000000, -50.000000)">
            <g id="HEADER" transform="translate(0.000000, 36.000000)">
                <g id="Icons/Logo" transform="translate(10.000000, 14.000000)">
                    <g id="Logo">
                        <g id="Group" transform="translate(58.643791, 10.588235)" fill="#FFFFFF" fill-rule="nonzero">
                            <polygon id="Shape" points="4.27670425 26.6400588 4.27670425 16.7442941 18.1328415 16.7442941 18.1328415 13.718 4.27670425 13.718 4.27670425 4.41635294 20.2189281 4.41635294 20.2189281 1.18582353 0.52555719 1.18582353 0.52555719 29.8705882 20.6016846 29.8705882 20.6016846 26.6400588"></polygon>
                            <polygon id="Shape" points="47.5676111 1.18582353 23.4150147 1.18582353 23.4150147 4.41635294 33.6157696 4.41635294 33.6157696 29.8705882 37.3668562 29.8705882 37.3668562 4.41635294 47.5676111 4.41635294"></polygon>
                            <polygon id="Shape" points="72.0072598 1.18582353 72.0072598 13.5880588 55.720549 13.5880588 55.720549 1.18582353 51.969402 1.18582353 51.969402 29.8705882 55.720549 29.8705882 55.720549 16.8185882 72.0072598 16.8185882 72.0072598 29.8705882 75.7392418 29.8705882 75.7392418 1.18582353"></polygon>
                            <polygon id="Shape" points="86.3418578 26.6400588 86.3418578 16.7442941 100.197995 16.7442941 100.197995 13.718 86.3418578 13.718 86.3418578 4.41635294 102.284082 4.41635294 102.284082 1.18582353 82.5907712 1.18582353 82.5907712 29.8705882 102.666899 29.8705882 102.666899 26.6400588"></polygon>
                            <path d="M112.06381,29.8705882 L112.06381,19.5663529 L119.891366,19.5663529 L126.628026,29.8705882 L130.876799,29.8705882 L123.719052,18.8794118 C124.656809,18.6565882 125.518026,18.2667059 126.2836,17.7282941 C127.049113,17.1898824 127.699817,16.5400588 128.235652,15.7788824 C128.771547,15.0362353 129.192574,14.1821765 129.479686,13.2538824 C129.766739,12.3255294 129.919877,11.3601176 129.919877,10.3575294 C129.919877,9.24358824 129.690199,8.12958824 129.250008,7.03417647 C128.809817,5.93876471 128.197382,4.95476471 127.412765,4.08217647 C126.608922,3.20952941 125.671165,2.50405882 124.58027,1.98417647 C123.470209,1.46435294 122.264505,1.18582353 120.963096,1.18582353 L108.312663,1.18582353 L108.312663,29.8705882 L112.06381,29.8705882 Z M112.06381,4.41635294 L120.771748,4.41635294 C121.479827,4.41635294 122.168861,4.58347059 122.819505,4.88052941 C123.470209,5.19611765 124.02527,5.62317647 124.522835,6.18011765 C125.020461,6.73711765 125.403217,7.36835294 125.69027,8.07388235 C125.977382,8.798 126.130461,9.55917647 126.130461,10.3575294 C126.130461,11.1372941 125.996487,11.8985294 125.747704,12.6225882 C125.498922,13.3652353 125.154374,13.9965294 124.714243,14.5534706 C124.254887,15.1104706 123.719052,15.5374706 123.106618,15.8531176 C122.494183,16.1872941 121.786044,16.3358235 121.020531,16.3358235 L112.06381,16.3358235 L112.06381,4.41635294 Z" id="Shape"></path>
                            <path d="M157.096317,17.9882353 L157.096317,15.7788824 L147.067806,15.7788824 C147.144345,15.259 147.374023,14.7577059 147.737675,14.2935882 C148.101266,13.8294118 148.522292,13.4024118 149.019918,13.0310588 C149.517544,12.6597647 150.034275,12.3255294 150.570109,12.0284706 C151.106005,11.7314118 151.60357,11.4900588 152.024657,11.2672941 C152.445683,11.0444706 152.943248,10.7845294 153.498309,10.4875294 C154.034144,10.1904118 154.550874,9.83770588 155.029335,9.41064706 C155.507796,9.00217647 155.909717,8.50094118 156.254204,7.94394118 C156.598691,7.38694118 156.770935,6.73711765 156.770935,5.99447059 C156.770935,5.36323529 156.617856,4.76911765 156.349908,4.19358824 C156.081961,3.63658824 155.680039,3.13529412 155.182474,2.70829412 C154.684848,2.29982353 154.072413,1.96564706 153.34517,1.72423529 C152.617926,1.48288235 151.814083,1.35294118 150.914596,1.35294118 C149.995944,1.35294118 149.153892,1.48288235 148.407484,1.70570588 C147.661075,1.92847059 147.010371,2.207 146.436206,2.52258824 C145.862101,2.83823529 145.402745,3.15388235 145.039154,3.45094118 C144.656397,3.76652941 144.388449,4.00788235 144.23531,4.175 L145.919475,5.99447059 C146.091719,5.77170588 146.321397,5.53035294 146.589345,5.25182353 C146.857292,4.97335294 147.182614,4.71341176 147.565371,4.45347059 C147.929023,4.19358824 148.350049,3.98935294 148.82851,3.82223529 C149.306971,3.65511765 149.842866,3.56229412 150.436136,3.56229412 C151.010301,3.56229412 151.507926,3.65511765 151.948057,3.80364706 C152.388248,3.95217647 152.7519,4.15641176 153.058118,4.39776471 C153.34517,4.65770588 153.574848,4.93623529 153.727926,5.25182353 C153.881065,5.586 153.97677,5.90164706 153.97677,6.23582353 C153.97677,6.75570588 153.804466,7.20129412 153.479144,7.57258824 C153.153761,7.96247059 152.7519,8.31523529 152.254275,8.64947059 C151.756709,8.98364706 151.201709,9.29929412 150.589275,9.59629412 C149.97684,9.89335294 149.364405,10.209 148.79024,10.5060588 C147.795049,11.0630588 146.972101,11.6200588 146.359667,12.177 C145.747292,12.734 145.249667,13.3095294 144.90518,13.9222353 C144.560693,14.5349412 144.31185,15.1661765 144.197041,15.8345882 C144.063067,16.5029412 144.005693,17.227 144.005693,17.9882353 L157.096317,17.9882353 Z" id="Shape"></path>
                            <path d="M174.569567,5.64170588 C174.18681,4.56488235 173.67008,3.63658824 173.000271,2.85682353 C172.330402,2.077 171.545724,1.44576471 170.627072,1.00017647 C169.70848,0.554588235 168.732394,0.331823529 167.698933,0.331823529 C166.608038,0.331823529 165.612846,0.554588235 164.694194,1.00017647 C163.775542,1.44576471 162.990925,2.077 162.340221,2.85682353 C161.689456,3.63658824 161.172725,4.56488235 160.809134,5.64170588 C160.426377,6.71858824 160.254134,7.90682353 160.254134,9.16929412 C160.254134,10.4689412 160.426377,11.6385882 160.809134,12.7154118 C161.172725,13.7922941 161.689456,14.7205882 162.340221,15.5003529 C162.990925,16.2801765 163.775542,16.8928235 164.694194,17.3384118 C165.612846,17.784 166.608038,17.9882353 167.698933,17.9882353 C168.732394,17.9882353 169.70848,17.784 170.627072,17.3384118 C171.545724,16.8928235 172.330402,16.2801765 173.000271,15.5003529 C173.67008,14.7205882 174.18681,13.7922941 174.569567,12.7154118 C174.933219,11.6385882 175.124627,10.4689412 175.124627,9.16929412 C175.124627,7.90682353 174.933219,6.71858824 174.569567,5.64170588 Z M172.158158,11.8799412 C171.92848,12.6968824 171.583993,13.3838235 171.162967,13.9593529 C170.722776,14.5349412 170.206046,14.9805294 169.631881,15.2961176 C169.038611,15.6303529 168.387907,15.7788824 167.698933,15.7788824 C166.97169,15.7788824 166.30182,15.6303529 165.708551,15.2961176 C165.096116,14.9805294 164.598551,14.5349412 164.177464,13.9593529 C163.756438,13.3838235 163.411951,12.6968824 163.182273,11.8799412 C162.952595,11.0815882 162.837786,10.1718824 162.837786,9.16929412 C162.837786,8.20388235 162.952595,7.29411765 163.182273,6.47717647 C163.411951,5.66029412 163.756438,4.97335294 164.177464,4.37923529 C164.598551,3.80364706 165.096116,3.35805882 165.708551,3.02388235 C166.30182,2.70829412 166.97169,2.54117647 167.698933,2.54117647 C168.387907,2.54117647 169.038611,2.70829412 169.631881,3.02388235 C170.206046,3.35805882 170.722776,3.80364706 171.162967,4.37923529 C171.583993,4.97335294 171.92848,5.66029412 172.158158,6.47717647 C172.387837,7.29411765 172.502645,8.20388235 172.502645,9.16929412 C172.502645,10.1718824 172.387837,11.0815882 172.158158,11.8799412 Z" id="Shape"></path>
                        </g>
                        <path d="M0,24.4411765 C0,12.9567647 9.59660294,3.64705882 21.4349101,3.64705882 C33.2732778,3.64705882 42.8698807,12.9567647 42.8698807,24.4411765 C42.8698807,35.9255882 33.2732778,45.2352941 21.4349101,45.2352941 C9.59660294,45.2352941 0,35.9255882 0,24.4411765 Z" id="Ellipse" fill="#FFFFFF" fill-rule="nonzero"></path>
                        <g id="Group" transform="translate(6.650327, 0.000000)" fill="#3398CC" fill-rule="nonzero">
                            <path d="M25.1163497,20.8764706 L4.61260621,0.974176471 C3.65592647,0.0461176471 2.10488889,0.0461176471 1.14820915,0.974176471 C0.191529412,1.90229412 0.191529412,3.40688235 1.14820915,4.33505882 L21.6518922,24.2372941 C22.6085719,25.1654118 24.1596095,25.1654118 25.1163497,24.2372941 C26.072969,23.3092353 26.0730294,21.8045882 25.1163497,20.8764706 Z" id="Shape"></path>
                            <path d="M22.8640049,29.2661765 L10.0338317,16.8195882 C9.07703105,15.8914706 7.52611438,15.8914706 6.56937418,16.8195882 C5.61269444,17.7476471 5.61269444,19.2523529 6.56937418,20.1804118 L19.3995474,32.627 C20.3562271,33.5551176 21.9072647,33.5551176 22.8640049,32.627 C23.8206846,31.6989412 23.8206846,30.1942941 22.8640049,29.2661765 Z" id="Shape"></path>
                            <path d="M29.272683,45.3619412 L8.87854902,25.5774706 C7.92186928,24.6494706 6.3708317,24.6494706 5.41415196,25.5774706 C4.45747222,26.5056471 4.45747222,28.0102353 5.41415196,28.9384118 L25.8082859,48.7228235 C26.7649657,49.6508235 28.3160033,49.6508235 29.272683,48.7228235 C30.2294232,47.7946471 30.2294232,46.2900588 29.272683,45.3619412 Z" id="Shape"></path>
                        </g>
                    </g>
                </g>
            </g>
        </g>
    </g>
</svg>